<svg width="84" height="84" viewBox="0 0 84 84" fill="none" xmlns="http://www.w3.org/2000/svg">
<path d="M0.350005 83.6667L5.98334 62.9667C2.27141 56.6036 0.321238 49.3666 0.333338 42C0.333338 18.9875 18.9875 0.333336 42 0.333336C65.0125 0.333336 83.6667 18.9875 83.6667 42C83.6667 65.0125 65.0125 83.6667 42 83.6667C34.6366 83.6786 27.4027 81.7299 21.0417 78.0208L0.350005 83.6667ZM26.9625 22.45C26.4244 22.4834 25.8986 22.6251 25.4167 22.8667C24.9647 23.1226 24.5521 23.4426 24.1917 23.8167C23.6917 24.2875 23.4083 24.6958 23.1042 25.0917C21.5642 27.0958 20.7359 29.5559 20.75 32.0833C20.7583 34.125 21.2917 36.1125 22.125 37.9708C23.8292 41.7292 26.6333 45.7083 30.3375 49.3958C31.2292 50.2833 32.1 51.175 33.0375 52.0042C37.635 56.0519 43.1136 58.971 49.0375 60.5292L51.4083 60.8917C52.1792 60.9333 52.95 60.875 53.725 60.8375C54.9385 60.7749 56.1234 60.4463 57.1958 59.875C57.7415 59.5939 58.274 59.2881 58.7917 58.9583C58.7917 58.9583 58.9708 58.8417 59.3125 58.5833C59.875 58.1667 60.2208 57.8708 60.6875 57.3833C61.0333 57.025 61.3333 56.6042 61.5625 56.125C61.8875 55.4458 62.2125 54.15 62.3458 53.0708C62.4458 52.2458 62.4167 51.7958 62.4042 51.5167C62.3875 51.0708 62.0167 50.6083 61.6125 50.4125L59.1875 49.325C59.1875 49.325 55.5625 47.7458 53.35 46.7375C53.1167 46.6358 52.8667 46.5779 52.6125 46.5667C52.3274 46.5374 52.0394 46.5695 51.7677 46.6607C51.4961 46.752 51.2471 46.9004 51.0375 47.0958V47.0875C51.0167 47.0875 50.7375 47.325 47.725 50.975C47.5521 51.2073 47.3139 51.3829 47.0408 51.4794C46.7678 51.5759 46.4721 51.5888 46.1917 51.5167C45.9202 51.4441 45.6542 51.3522 45.3958 51.2417C44.8792 51.025 44.7 50.9417 44.3458 50.7875L44.325 50.7792C41.9413 49.7384 39.7343 48.3327 37.7833 46.6125C37.2583 46.1542 36.7708 45.6542 36.2708 45.1708C34.6316 43.601 33.203 41.8251 32.0208 39.8875L31.775 39.4917C31.5984 39.2257 31.4557 38.9388 31.35 38.6375C31.1917 38.025 31.6042 37.5333 31.6042 37.5333C31.6042 37.5333 32.6167 36.425 33.0875 35.825C33.4795 35.3263 33.8453 34.8076 34.1833 34.2708C34.675 33.4792 34.8292 32.6667 34.5708 32.0375C33.4042 29.1875 32.1958 26.35 30.9542 23.5333C30.7083 22.975 29.9792 22.575 29.3167 22.4958C29.0917 22.4708 28.8667 22.4458 28.6417 22.4292C28.0821 22.4014 27.5214 22.4069 26.9625 22.4458V22.45Z" fill="white"/>
</svg>
