<svg width="487" height="451" viewBox="0 0 487 451" fill="none" xmlns="http://www.w3.org/2000/svg">
<g clip-path="url(#clip0)">
<g opacity="0.5">
<path opacity="0.5" d="M340.084 27.1402L135.11 27.6399C134.004 27.6424 132.909 27.863 131.888 28.2891C130.867 28.7153 129.939 29.3387 129.159 30.1236C128.379 30.9086 127.761 31.8397 127.34 32.8639C126.919 33.888 126.705 34.9851 126.708 36.0923L127.639 419.775C127.641 420.883 127.862 421.979 128.287 423.001C128.713 424.023 129.336 424.951 130.12 425.732C130.905 426.512 131.835 427.131 132.858 427.552C133.882 427.973 134.978 428.188 136.084 428.185L341.058 427.685C342.165 427.683 343.261 427.462 344.282 427.035C345.304 426.609 346.231 425.985 347.012 425.199C347.792 424.413 348.41 423.482 348.83 422.457C349.251 421.432 349.465 420.334 349.461 419.226L348.53 35.5432C348.527 34.4365 348.306 33.3412 347.88 32.32C347.453 31.2987 346.83 30.3715 346.046 29.5912C345.262 28.8109 344.332 28.1928 343.309 27.7723C342.286 27.3517 341.19 27.137 340.084 27.1402V27.1402Z" fill="url(#paint0_linear)"/>
</g>
<path d="M337.115 32.3786L138.103 32.8652C133.459 32.8766 129.704 36.6535 129.715 41.3012L130.626 414.359C130.637 419.007 134.411 422.765 139.055 422.754L338.067 422.267C342.711 422.256 346.466 418.479 346.455 413.831L345.544 40.7734C345.533 36.1257 341.759 32.3672 337.115 32.3786Z" fill="#00332C"/>
<path opacity="0.4" d="M291.852 42.262C291.239 46.3974 289.167 50.1766 286.011 52.9162C282.855 55.6557 278.824 57.1748 274.647 57.1986L200.098 57.3776C195.924 57.3701 191.89 55.8692 188.724 53.1459C185.559 50.4226 183.471 46.6564 182.837 42.5273L143.352 42.626C142.276 42.6284 141.21 42.8431 140.216 43.2577C139.222 43.6723 138.32 44.2787 137.56 45.0424C136.801 45.8061 136.199 46.712 135.789 47.7085C135.379 48.705 135.17 49.7725 135.172 50.8501L136.029 404.783C136.031 405.861 136.246 406.928 136.661 407.923C137.075 408.918 137.682 409.822 138.446 410.582C139.209 411.343 140.115 411.945 141.112 412.355C142.108 412.764 143.175 412.974 144.252 412.97L332.89 412.514C333.967 412.511 335.033 412.297 336.027 411.882C337.02 411.468 337.923 410.861 338.682 410.097C339.442 409.334 340.044 408.428 340.454 407.431C340.864 406.435 341.073 405.367 341.071 404.29L340.214 50.3565C340.211 49.2789 339.997 48.2124 339.583 47.2178C339.168 46.2232 338.562 45.3199 337.799 44.5597C337.036 43.7995 336.131 43.1971 335.135 42.7869C334.14 42.3768 333.073 42.167 331.996 42.1694L291.852 42.262Z" fill="#F2F7F5"/>
<path d="M258.485 46.7478L212.86 47.4332C212.179 47.4435 211.635 48.0042 211.645 48.6856L211.654 49.2284C211.664 49.9098 212.224 50.4539 212.905 50.4437L258.53 49.7583C259.211 49.748 259.755 49.1873 259.745 48.5059L259.736 47.9631C259.726 47.2817 259.166 46.7376 258.485 46.7478Z" fill="#DBDBDB"/>
<path d="M269.975 49.5803C270.973 49.5653 271.769 48.7439 271.754 47.7456C271.739 46.7474 270.918 45.9503 269.921 45.9653C268.923 45.9803 268.127 46.8017 268.142 47.7999C268.157 48.7982 268.978 49.5953 269.975 49.5803Z" fill="#DBDBDB"/>
<g opacity="0.5">
<path opacity="0.5" d="M263.273 311.338C263.277 300.808 260.556 290.457 255.377 281.291C250.197 272.126 242.734 264.459 233.715 259.037C224.695 253.614 214.427 250.622 203.909 250.35C193.391 250.078 182.982 252.536 173.695 257.485C164.409 262.434 156.56 269.705 150.914 278.591C145.269 287.476 142.018 297.673 141.478 308.189C140.939 318.705 143.129 329.182 147.836 338.6C152.543 348.017 159.606 356.054 168.338 361.929L168.375 362.201C170.365 364.109 172.714 365.605 175.285 366.599L175.365 366.328C178.22 368.796 190.234 372.701 204.037 372.664H204.339C213.081 372.664 222.574 371.122 230.921 366.599C230.921 366.599 230.995 366.439 231.106 366.137C233.22 365.143 235.16 363.813 236.851 362.201C236.884 361.966 236.917 361.736 236.95 361.51C245.071 355.907 251.71 348.413 256.295 339.673C260.881 330.934 263.275 321.21 263.273 311.338V311.338Z" fill="url(#paint1_linear)"/>
</g>
<path d="M202.329 370.505C234.977 370.505 261.442 344.018 261.442 311.344C261.442 278.671 234.977 252.184 202.329 252.184C169.682 252.184 143.217 278.671 143.217 311.344C143.217 344.018 169.682 370.505 202.329 370.505Z" fill="#F5F5F5"/>
<path d="M179.748 335.671C179.748 335.671 165.662 336.825 169.392 362.503C171.321 364.36 173.598 365.815 176.093 366.785L184.014 339.953L179.748 335.671Z" fill="#FDA57D"/>
<path d="M225.453 335.671C225.453 335.671 239.539 336.825 235.81 362.503C233.881 364.36 231.603 365.815 229.109 366.785L221.187 339.94L225.453 335.671Z" fill="#FDA57D"/>
<path d="M180.359 293.588C180.359 293.588 173.658 313.109 170.002 311.258C170.002 311.258 205.276 341.754 236.426 311.258C236.426 311.258 230.94 301.497 223.018 293.57L180.359 293.588Z" fill="#333333"/>
<path d="M202.971 317.983C217.444 317.983 229.176 306.241 229.176 291.756C229.176 277.271 217.444 265.529 202.971 265.529C188.498 265.529 176.765 277.271 176.765 291.756C176.765 306.241 188.498 317.983 202.971 317.983Z" fill="#333333"/>
<path opacity="0.1" d="M225.182 335.671H179.483L175.217 353.97C175.217 353.97 172.715 362.441 175.834 366.168C178.953 369.894 208.063 378.365 229.466 366.785C231.333 361.907 231.55 356.552 230.083 351.539C227.617 343.001 229.466 350.922 229.466 350.922L225.182 335.671Z" fill="black"/>
<path opacity="0.1" d="M225.792 335.671H180.087L175.822 353.97C175.822 353.97 173.319 362.441 176.438 366.168C179.557 369.894 208.667 378.365 230.07 366.785C231.937 361.907 232.154 356.552 230.687 351.539C228.221 343.001 230.07 350.922 230.07 350.922L225.792 335.671Z" fill="black"/>
<path d="M225.453 335.671H179.748L175.482 353.97C175.482 353.97 172.98 362.441 176.099 366.168C179.218 369.894 208.328 378.365 229.731 366.785C231.598 361.907 231.815 356.552 230.348 351.539C227.882 343.001 229.731 350.922 229.731 350.922L225.453 335.671Z" fill="#FFA8BA"/>
<path opacity="0.1" d="M193.767 320.488H212.063V338.194C212.063 338.992 211.906 339.783 211.601 340.52C211.296 341.257 210.849 341.927 210.285 342.492C209.721 343.056 209.052 343.504 208.315 343.809C207.578 344.114 206.789 344.272 205.991 344.272H199.827C198.216 344.272 196.672 343.631 195.533 342.492C194.394 341.352 193.754 339.806 193.754 338.194V320.488H193.767Z" fill="black"/>
<path d="M193.767 319.815H212.063V337.522C212.063 338.32 211.906 339.11 211.601 339.848C211.296 340.585 210.849 341.255 210.285 341.819C209.721 342.383 209.052 342.831 208.315 343.136C207.578 343.442 206.789 343.599 205.991 343.599H199.827C198.216 343.599 196.672 342.959 195.533 341.819C194.394 340.679 193.754 339.134 193.754 337.522V319.815H193.767Z" fill="#FDA57D"/>
<path opacity="0.1" d="M193.804 322.45C199.697 324.653 206.183 324.671 212.088 322.499V320.253H193.804V322.45Z" fill="black"/>
<path d="M202.971 323.677C217.444 323.677 229.176 311.935 229.176 297.45C229.176 282.965 217.444 271.223 202.971 271.223C188.498 271.223 176.765 282.965 176.765 297.45C176.765 311.935 188.498 323.677 202.971 323.677Z" fill="#FDA57D"/>
<path d="M177.924 287.486H227.894C227.894 287.486 223.628 267.293 204.74 268.583C185.851 269.872 177.924 287.486 177.924 287.486Z" fill="#333333"/>
<path d="M177.313 300.905C178.658 300.905 179.748 298.858 179.748 296.334C179.748 293.809 178.658 291.762 177.313 291.762C175.969 291.762 174.878 293.809 174.878 296.334C174.878 298.858 175.969 300.905 177.313 300.905Z" fill="#FDA57D"/>
<path d="M228.498 300.905C229.843 300.905 230.933 298.858 230.933 296.334C230.933 293.809 229.843 291.762 228.498 291.762C227.154 291.762 226.063 293.809 226.063 296.334C226.063 298.858 227.154 300.905 228.498 300.905Z" fill="#FDA57D"/>
<path opacity="0.1" d="M177.924 288.165H227.894C227.894 288.165 223.628 267.972 204.74 269.261C185.851 270.551 177.924 288.165 177.924 288.165Z" fill="black"/>
<g opacity="0.5">
<path opacity="0.5" d="M213.876 150.446C213.872 139.917 216.593 129.565 221.772 120.4C226.952 111.234 234.415 103.567 243.434 98.1451C252.453 92.7228 262.722 89.7301 273.24 89.4582C283.758 89.1863 294.167 91.6444 303.453 96.5934C312.74 101.542 320.589 108.814 326.234 117.699C331.88 126.585 335.131 136.782 335.671 147.298C336.21 157.814 334.02 168.29 329.313 177.708C324.606 187.125 317.543 195.163 308.811 201.037L308.774 201.309C306.788 203.236 304.439 204.748 301.864 205.757L301.784 205.486C298.929 207.954 286.914 211.859 273.112 211.822H272.81C264.068 211.822 254.575 210.28 246.228 205.757C246.228 205.757 246.154 205.597 246.043 205.294C243.929 204.3 241.988 202.971 240.297 201.358C240.265 201.124 240.232 200.893 240.199 200.667C232.071 195.06 225.428 187.558 220.842 178.809C216.256 170.06 213.865 160.326 213.876 150.446V150.446Z" fill="url(#paint2_linear)"/>
</g>
<path d="M274.813 209.613C307.46 209.613 333.926 183.126 333.926 150.453C333.926 117.779 307.46 91.292 274.813 91.292C242.166 91.292 215.701 117.779 215.701 150.453C215.701 183.126 242.166 209.613 274.813 209.613Z" fill="#F2F7F5"/>
<path d="M251.64 172.984C251.64 172.984 237.554 174.138 241.284 199.816C243.214 201.668 245.491 203.119 247.985 204.085L255.906 177.253L251.64 172.984Z" fill="#BE7C5E"/>
<path d="M297.339 172.984C297.339 172.984 311.425 174.138 307.695 199.816C305.766 201.668 303.488 203.119 300.994 204.085L293.073 177.253L297.339 172.984Z" fill="#BE7C5E"/>
<path d="M252.245 130.901C252.245 130.901 251.16 134.06 249.625 137.688C246.271 145.708 250.099 176.377 258.119 179.641C267.12 183.343 278.956 185.663 291.254 181.177C301.938 177.278 305.236 142.309 297.678 133.825C296.79 132.826 295.866 131.833 294.898 130.87L252.245 130.901Z" fill="#333333"/>
<path d="M274.856 155.302C289.33 155.302 301.062 143.56 301.062 129.075C301.062 114.59 289.33 102.848 274.856 102.848C260.383 102.848 248.651 114.59 248.651 129.075C248.651 143.56 260.383 155.302 274.856 155.302Z" fill="#333333"/>
<path opacity="0.1" d="M297.074 172.984H251.369L247.103 191.283C247.103 191.283 244.6 199.754 247.72 203.481C250.839 207.207 279.948 215.678 301.352 204.098C303.219 199.22 303.436 193.865 301.969 188.852C299.503 180.314 301.352 188.235 301.352 188.235L297.074 172.984Z" fill="black"/>
<path opacity="0.1" d="M297.678 172.984H251.973L247.707 191.283C247.707 191.283 245.205 199.754 248.324 203.481C251.443 207.207 280.553 215.678 301.956 204.098C303.823 199.22 304.04 193.865 302.573 188.852C300.107 180.314 301.956 188.235 301.956 188.235L297.678 172.984Z" fill="black"/>
<path d="M297.339 172.984H251.64L247.374 191.283C247.374 191.283 244.872 199.754 247.991 203.481C251.11 207.207 280.22 215.678 301.623 204.098C303.49 199.22 303.707 193.865 302.24 188.852C299.774 180.314 301.623 188.235 301.623 188.235L297.339 172.984Z" fill="#FA5246"/>
<path opacity="0.1" d="M265.653 157.807H283.937V175.514C283.937 177.125 283.297 178.671 282.158 179.811C281.02 180.95 279.475 181.591 277.865 181.591H271.7C270.09 181.591 268.545 180.95 267.406 179.811C266.268 178.671 265.628 177.125 265.628 175.514V157.807H265.653Z" fill="black"/>
<path d="M265.653 157.128H283.937V174.835C283.937 176.447 283.297 177.992 282.158 179.132C281.02 180.272 279.475 180.912 277.865 180.912H271.7C270.09 180.912 268.545 180.272 267.406 179.132C266.268 177.992 265.628 176.447 265.628 174.835V157.128H265.653Z" fill="#BE7C5E"/>
<path opacity="0.1" d="M265.696 159.763C271.589 161.966 278.075 161.984 283.98 159.812V157.566H265.696V159.763Z" fill="black"/>
<path d="M274.856 160.99C289.33 160.99 301.062 149.248 301.062 134.763C301.062 120.278 289.33 108.536 274.856 108.536C260.383 108.536 248.651 120.278 248.651 134.763C248.651 149.248 260.383 160.99 274.856 160.99Z" fill="#BE7C5E"/>
<path d="M249.809 124.805H299.78C299.78 124.805 295.514 104.612 276.626 105.902C257.737 107.191 249.809 124.805 249.809 124.805Z" fill="#333333"/>
<path d="M249.199 138.218C250.544 138.218 251.634 136.171 251.634 133.647C251.634 131.122 250.544 129.075 249.199 129.075C247.854 129.075 246.764 131.122 246.764 133.647C246.764 136.171 247.854 138.218 249.199 138.218Z" fill="#BE7C5E"/>
<path d="M300.384 138.218C301.729 138.218 302.819 136.171 302.819 133.647C302.819 131.122 301.729 129.075 300.384 129.075C299.039 129.075 297.949 131.122 297.949 133.647C297.949 136.171 299.039 138.218 300.384 138.218Z" fill="#BE7C5E"/>
<path opacity="0.1" d="M249.809 125.484H299.78C299.78 125.484 295.514 105.291 276.626 106.58C257.737 107.87 249.809 125.484 249.809 125.484Z" fill="black"/>
<g opacity="0.5">
<path opacity="0.5" d="M3.08232 97.548V185.601H141.7C141.7 185.601 151.934 205.757 169.527 211.618C169.527 211.618 163.911 197.342 169.774 185.601H208.365V97.548H3.08232Z" fill="url(#paint3_linear)"/>
</g>
<path d="M8.63049 100.565V183.855H147.335C147.335 183.855 147.335 200.513 163.979 206.066C163.979 206.066 158.431 194.96 163.979 183.855H202.816V100.565H8.63049Z" fill="#F2F7F5"/>
<path d="M136.238 117.223H25.275V128.328H136.238V117.223Z" fill="#FAAE2B"/>
<path d="M175.076 133.881H25.275V144.986H175.076V133.881Z" fill="#FAAE2B"/>
<path d="M158.431 150.539H25.275V161.644H158.431V150.539Z" fill="#FAAE2B"/>
<g opacity="0.5">
<path opacity="0.5" d="M474.677 267.213V355.266H336.065C336.065 355.266 325.832 375.422 308.232 381.283C308.232 381.283 313.848 367.007 307.985 355.266H269.395V267.213H474.677Z" fill="url(#paint4_linear)"/>
</g>
<path d="M469.129 270.23V353.52H330.424C330.424 353.52 330.424 370.178 313.78 375.73C313.78 375.73 319.328 364.625 313.78 353.52H274.943V270.23H469.129Z" fill="#F2F7F5"/>
<path d="M408.715 286.888H297.752V297.993H408.715V286.888Z" fill="#FAAE2B"/>
<path d="M447.552 303.546H297.752V314.651H447.552V303.546Z" fill="#FAAE2B"/>
<path d="M430.908 320.204H297.752V331.309H430.908V320.204Z" fill="#FAAE2B"/>
<g opacity="0.5">
<path opacity="0.5" d="M53.6323 440.512H51.7829V451H53.6323V440.512Z" fill="#00332C"/>
<path opacity="0.5" d="M57.9476 446.681V444.83H47.4677V446.681H57.9476Z" fill="#00332C"/>
</g>
<g opacity="0.5">
<path opacity="0.5" d="M392.071 118.457H390.221V128.945H392.071V118.457Z" fill="#00332C"/>
<path opacity="0.5" d="M396.386 124.627V122.776H385.906V124.627H396.386Z" fill="#00332C"/>
</g>
<g opacity="0.5">
<path opacity="0.5" d="M431.524 377.581H429.675V388.07H431.524V377.581Z" fill="#00332C"/>
<path opacity="0.5" d="M435.84 383.751V381.9H425.36V383.751H435.84Z" fill="#00332C"/>
</g>
<g opacity="0.5">
<path opacity="0.5" d="M315.013 0H313.163V10.4884H315.013V0Z" fill="#00332C"/>
<path opacity="0.5" d="M319.328 6.16963V4.31874L308.848 4.31874V6.16963L319.328 6.16963Z" fill="#00332C"/>
</g>
<path opacity="0.5" d="M159.479 439.469C158.975 439.242 158.57 438.838 158.343 438.333C158.116 437.829 158.082 437.258 158.246 436.73C158.273 436.648 158.289 436.563 158.295 436.477V436.477C158.311 436.233 158.248 435.99 158.114 435.785C157.981 435.58 157.785 435.423 157.556 435.338C157.326 435.254 157.076 435.246 156.841 435.315C156.607 435.385 156.401 435.528 156.255 435.724V435.724C156.205 435.793 156.164 435.868 156.132 435.946C155.905 436.451 155.501 436.856 154.997 437.083C154.493 437.31 153.923 437.345 153.395 437.18C153.313 437.154 153.228 437.137 153.142 437.131V437.131C152.898 437.115 152.655 437.178 152.45 437.312C152.245 437.445 152.089 437.641 152.005 437.871C151.92 438.101 151.912 438.351 151.981 438.586C152.051 438.82 152.194 439.026 152.39 439.173V439.173C152.459 439.222 152.533 439.264 152.612 439.296C153.116 439.523 153.52 439.927 153.748 440.432C153.975 440.936 154.009 441.507 153.845 442.036C153.818 442.118 153.802 442.203 153.795 442.288V442.288C153.78 442.533 153.843 442.775 153.976 442.98C154.11 443.186 154.306 443.342 154.535 443.427C154.764 443.511 155.015 443.52 155.249 443.45C155.484 443.381 155.689 443.237 155.836 443.041V443.041C155.885 442.972 155.927 442.898 155.959 442.819C156.186 442.314 156.589 441.91 157.094 441.682C157.598 441.455 158.168 441.42 158.696 441.585C158.778 441.612 158.863 441.628 158.949 441.635V441.635C159.193 441.65 159.435 441.587 159.64 441.453C159.845 441.32 160.002 441.124 160.086 440.894C160.171 440.665 160.179 440.414 160.11 440.179C160.04 439.945 159.897 439.739 159.701 439.592V439.592C159.632 439.543 159.558 439.501 159.479 439.469V439.469Z" fill="#FFA8BA"/>
<path opacity="0.5" d="M35.6932 243.676C35.1887 243.449 34.7846 243.045 34.5574 242.54C34.3302 242.035 34.2957 241.465 34.4603 240.936C34.4867 240.854 34.5032 240.769 34.5096 240.683V240.683C34.5254 240.439 34.4619 240.197 34.3286 239.991C34.1953 239.786 33.9994 239.63 33.77 239.545C33.5406 239.461 33.29 239.452 33.0556 239.522C32.8212 239.591 32.6155 239.735 32.4691 239.931V239.931C32.4196 240 32.3782 240.074 32.3458 240.153C32.1192 240.658 31.7156 241.062 31.2112 241.29C30.7069 241.517 30.1368 241.552 29.6087 241.387C29.5267 241.36 29.4419 241.344 29.356 241.337C29.112 241.322 28.8695 241.385 28.6646 241.519C28.4596 241.652 28.3032 241.848 28.2187 242.078C28.1341 242.307 28.126 242.558 28.1954 242.793C28.2648 243.027 28.4081 243.233 28.6039 243.38V243.38C28.6728 243.429 28.7473 243.471 28.8258 243.503C29.3304 243.73 29.7345 244.134 29.9617 244.639C30.1888 245.143 30.2234 245.714 30.0588 246.242C30.0324 246.324 30.0158 246.409 30.0094 246.495V246.495C29.9836 246.744 30.0405 246.994 30.1712 247.207C30.3019 247.42 30.4992 247.584 30.7324 247.673C30.9656 247.762 31.2218 247.772 31.4611 247.701C31.7004 247.629 31.9096 247.481 32.0561 247.279V247.279C32.1057 247.21 32.1471 247.135 32.1794 247.057C32.406 246.552 32.8097 246.147 33.314 245.92C33.8183 245.693 34.3884 245.658 34.9165 245.823C34.9985 245.849 35.0833 245.866 35.1692 245.872V245.872C35.4132 245.888 35.6557 245.824 35.8607 245.691C36.0656 245.558 36.222 245.361 36.3066 245.132C36.3911 244.902 36.3993 244.652 36.3298 244.417C36.2604 244.182 36.1171 243.976 35.9213 243.83C35.8521 243.769 35.7755 243.717 35.6932 243.676V243.676Z" fill="#FFA8BA"/>
<path opacity="0.5" d="M102.888 297.352C102.383 297.125 101.979 296.721 101.752 296.216C101.525 295.711 101.49 295.141 101.655 294.612C101.681 294.53 101.698 294.445 101.704 294.359V294.359C101.72 294.115 101.656 293.872 101.523 293.667C101.39 293.462 101.194 293.306 100.964 293.221C100.735 293.136 100.485 293.128 100.25 293.198C100.016 293.267 99.81 293.411 99.6637 293.607V293.607C99.6141 293.676 99.5727 293.75 99.5404 293.829C99.3137 294.334 98.9101 294.738 98.4057 294.965C97.9014 295.193 97.3313 295.227 96.8033 295.063C96.7212 295.036 96.6364 295.02 96.5505 295.013V295.013C96.3065 294.997 96.064 295.061 95.8591 295.194C95.6541 295.328 95.4977 295.524 95.4132 295.753C95.3287 295.983 95.3205 296.234 95.3899 296.468C95.4593 296.703 95.6026 296.909 95.7984 297.055C95.8673 297.105 95.9418 297.146 96.0204 297.179C96.5249 297.406 96.929 297.81 97.1562 298.314C97.3833 298.819 97.4179 299.39 97.2533 299.918C97.2269 300 97.2104 300.085 97.204 300.171V300.171C97.1781 300.42 97.235 300.67 97.3657 300.883C97.4964 301.096 97.6937 301.259 97.9269 301.349C98.1601 301.438 98.4163 301.448 98.6556 301.376C98.8949 301.305 99.1041 301.157 99.2506 300.955V300.955C99.3002 300.886 99.3416 300.811 99.3739 300.732C99.6006 300.227 100.004 299.823 100.509 299.596C101.013 299.368 101.583 299.334 102.111 299.499C102.193 299.525 102.278 299.541 102.364 299.548V299.548C102.608 299.564 102.85 299.5 103.055 299.367C103.26 299.233 103.417 299.037 103.501 298.808C103.586 298.578 103.594 298.327 103.524 298.093C103.455 297.858 103.312 297.652 103.116 297.506V297.506C103.047 297.445 102.97 297.393 102.888 297.352V297.352Z" fill="#FFA8BA"/>
<path opacity="0.5" d="M486.328 442.955C485.824 442.728 485.419 442.324 485.192 441.819C484.965 441.315 484.931 440.744 485.095 440.215C485.122 440.133 485.138 440.048 485.144 439.963V439.963C485.16 439.718 485.097 439.476 484.963 439.271C484.83 439.065 484.634 438.909 484.405 438.824C484.175 438.74 483.925 438.731 483.69 438.801C483.456 438.87 483.25 439.014 483.104 439.21V439.21C483.054 439.279 483.013 439.353 482.981 439.432C482.754 439.937 482.35 440.341 481.846 440.569C481.342 440.796 480.772 440.831 480.244 440.666C480.162 440.639 480.077 440.623 479.991 440.616C479.747 440.601 479.504 440.664 479.299 440.798C479.094 440.931 478.938 441.127 478.853 441.357C478.769 441.586 478.761 441.837 478.83 442.072C478.9 442.306 479.043 442.512 479.239 442.659C479.308 442.708 479.382 442.75 479.461 442.782C479.965 443.009 480.369 443.413 480.596 443.918C480.824 444.422 480.858 444.993 480.694 445.521C480.667 445.603 480.651 445.688 480.644 445.774C480.618 446.023 480.675 446.273 480.806 446.486C480.937 446.699 481.134 446.863 481.367 446.952C481.6 447.041 481.857 447.051 482.096 446.98C482.335 446.908 482.544 446.76 482.691 446.558C482.741 446.489 482.782 446.414 482.814 446.336C483.041 445.831 483.445 445.426 483.949 445.199C484.453 444.972 485.023 444.937 485.551 445.102C485.633 445.128 485.718 445.145 485.804 445.151C486.048 445.167 486.291 445.103 486.495 444.97C486.7 444.837 486.857 444.64 486.941 444.411C487.026 444.181 487.034 443.931 486.965 443.696C486.895 443.461 486.752 443.256 486.556 443.109V443.109C486.487 443.048 486.41 442.996 486.328 442.955V442.955Z" fill="#FFA8BA"/>
<path opacity="0.5" d="M3.69878 410.28C5.74156 410.28 7.39756 408.623 7.39756 406.579C7.39756 404.534 5.74156 402.877 3.69878 402.877C1.656 402.877 0 404.534 0 406.579C0 408.623 1.656 410.28 3.69878 410.28Z" fill="#FA5246"/>
<path opacity="0.5" d="M421.045 43.1874C423.087 43.1874 424.743 41.5301 424.743 39.4856C424.743 37.4412 423.087 35.7839 421.045 35.7839C419.002 35.7839 417.346 37.4412 417.346 39.4856C417.346 41.5301 419.002 43.1874 421.045 43.1874Z" fill="#FFA8BA"/>
<path opacity="0.5" d="M64.1122 50.591C66.155 50.591 67.811 48.9336 67.811 46.8892C67.811 44.8448 66.155 43.1874 64.1122 43.1874C62.0694 43.1874 60.4134 44.8448 60.4134 46.8892C60.4134 48.9336 62.0694 50.591 64.1122 50.591Z" fill="#00332C"/>
<path opacity="0.5" d="M424.743 217.171C426.786 217.171 428.442 215.514 428.442 213.469C428.442 211.425 426.786 209.767 424.743 209.767C422.701 209.767 421.045 211.425 421.045 213.469C421.045 215.514 422.701 217.171 424.743 217.171Z" fill="#FA5246"/>
</g>
<defs>
<linearGradient id="paint0_linear" x1="150.889" y1="435.132" x2="325.526" y2="20.28" gradientUnits="userSpaceOnUse">
<stop stop-color="#808080" stop-opacity="0.25"/>
<stop offset="0.54" stop-color="#808080" stop-opacity="0.12"/>
<stop offset="1" stop-color="#808080" stop-opacity="0.1"/>
</linearGradient>
<linearGradient id="paint1_linear" x1="65126.3" y1="84487.8" x2="65126.3" y2="60228.7" gradientUnits="userSpaceOnUse">
<stop stop-color="#808080" stop-opacity="0.25"/>
<stop offset="0.54" stop-color="#808080" stop-opacity="0.12"/>
<stop offset="1" stop-color="#808080" stop-opacity="0.1"/>
</linearGradient>
<linearGradient id="paint2_linear" x1="73027.9" y1="52445.5" x2="73027.9" y2="28176.6" gradientUnits="userSpaceOnUse">
<stop stop-color="#808080" stop-opacity="0.25"/>
<stop offset="0.54" stop-color="#808080" stop-opacity="0.12"/>
<stop offset="1" stop-color="#808080" stop-opacity="0.1"/>
</linearGradient>
<linearGradient id="paint3_linear" x1="77291.9" y1="48862.6" x2="77291.9" y2="27772.1" gradientUnits="userSpaceOnUse">
<stop stop-color="#808080" stop-opacity="0.25"/>
<stop offset="0.54" stop-color="#808080" stop-opacity="0.12"/>
<stop offset="1" stop-color="#808080" stop-opacity="0.1"/>
</linearGradient>
<linearGradient id="paint4_linear" x1="-678184" y1="80401.6" x2="-678184" y2="59311.1" gradientUnits="userSpaceOnUse">
<stop stop-color="#808080" stop-opacity="0.25"/>
<stop offset="0.54" stop-color="#808080" stop-opacity="0.12"/>
<stop offset="1" stop-color="#808080" stop-opacity="0.1"/>
</linearGradient>
<clipPath id="clip0">
<rect width="487" height="451" fill="white"/>
</clipPath>
</defs>
</svg>
